# xmcd CD database file
#
# Track frame offsets:
#	150
#	29730
#	47128
#	70343
#	95603
#	112708
#	138264
#	159671
#	192463
#	211669
#	223219
#	248478
#
# Disc length: 3360 seconds
#
# Revision: 0
# Processed by: cddbd v1.5.1PL2 Copyright (c) Steve Scherf et al.
# Submitted via: CDex 1.50
#
DISCID=ad0d1e0c
DTITLE=Philippe Duchemin - The best of jazz pianist
DYEAR=2005
DGENRE=Jazz
TTITLE0=Alizés
TTITLE1=Jogging in paris
TTITLE2=Mister shuffle
TTITLE3=fumet
TTITLE4=Blitz
TTITLE5=Canicule
TTITLE6=Watch what happens
TTITLE7=Take back
TTITLE8=Fond brun
TTITLE9=Notes en papillotes
TTITLE10=Three colors
TTITLE11=Vipo
EXTD=YEAR: 2005
EXTT0=
EXTT1=
EXTT2=
EXTT3=
EXTT4=
EXTT5=
EXTT6=
EXTT7=
EXTT8=
EXTT9=
EXTT10=
EXTT11=
PLAYORDER=
